# xmcd
#
# Track frame offsets:
#	150
#	13103
#	28973
#	44712
#	62349
#	82367
#	97924
#	114516
#	127616
#	145508
#	160059
#	174664
#	191578
#	207345
#	220287
#
# Disc length: 3101
#
# Revision: 1
# Processed by: cddbd v1.5.1PL0 Copyright (c) Steve Scherf et al.
# Submitted via: VisiTrax 2.9.5.180 - For more info visit www.synapsa.com
# Normalized: r0:DSETVAR1
#
DISCID=d00c1b0f
DTITLE=Various Artist - CDX 205 January 1999
DYEAR=1999
DGENRE=
TTITLE0=Lisa Brokop - Ain't enough roses
TTITLE1=Steve Wariner - Can I come over tonight
TTITLE2=Tim Wilson - First baptist bar and grill
TTITLE3=Alan Jackson - Gone crazy
TTITLE4=Trio - High Sierra
TTITLE5=Aaron Tippin - I'm leaving
TTITLE6=Steve Wariner - In a heartbeat
TTITLE7=Gil Grand - Let's start livin'
TTITLE8=James Prosser - Life goes on
TTITLE9=Chris LeDoux - One tonight
TTITLE10=Shane McAnally - Say anything
TTITLE11=Clint Black - You don't need me now
TTITLE12=Blackhawk - Your own little corner of my heart
TTITLE13=Deana Carter - You still shake me
TTITLE14=Trini Triggs - Horse to Mexico
EXTD=
EXTT0=
EXTT1=
EXTT2=
EXTT3=
EXTT4=
EXTT5=
EXTT6=
EXTT7=
EXTT8=
EXTT9=
EXTT10=
EXTT11=
EXTT12=
EXTT13=
EXTT14=
PLAYORDER=
